HIERARCHY
ROOT hip
{
	OFFSET 0.000000 0.000000 0.000000
	CHANNELS 6 Xposition Yposition Zposition Xrotation Zrotation Yrotation 
	JOINT abdomen
	{
		OFFSET 0.000000 3.422050 0.000000
		CHANNELS 3 Xrotation Zrotation Yrotation 
		JOINT chest
		{
			OFFSET 0.000000 8.486693 -0.684411
			CHANNELS 3 Xrotation Zrotation Yrotation 
			JOINT neck
			{
				OFFSET 0.000000 10.266162 -0.273764
				CHANNELS 3 Xrotation Zrotation Yrotation 
				JOINT head
				{
					OFFSET 0.000000 3.148285 0.000000
					CHANNELS 3 Xrotation Zrotation Yrotation 
					End Site
					{
						OFFSET 0.000000 3.148289 0.000000
					}
				}
			}
			JOINT lCollar
			{
				OFFSET 3.422053 6.707223 -0.821293
				CHANNELS 3 Yrotation Zrotation Xrotation 
				JOINT lShldr
				{
					OFFSET 3.285171 0.000000 0.000000
					CHANNELS 3 Zrotation Yrotation Xrotation 
					JOINT lForeArm
					{
						OFFSET 10.129278 0.000000 0.000000
						CHANNELS 3 Yrotation Zrotation Xrotation 
						JOINT lHand
						{
							OFFSET 8.486692 0.000000 0.000000
							CHANNELS 3 Zrotation Yrotation Xrotation 
							End Site
							{
								OFFSET 4.106464 0.000000 0.000000
							}
						}
					}
				}
			}
			JOINT rCollar
			{
				OFFSET -3.558935 6.707223 -0.821293
				CHANNELS 3 Yrotation Zrotation Xrotation 
				JOINT rShldr
				{
					OFFSET -3.148289 0.000000 0.000000
					CHANNELS 3 Zrotation Yrotation Xrotation 
					JOINT rForeArm
					{
						OFFSET -10.266159 0.000000 0.000000
						CHANNELS 3 Yrotation Zrotation Xrotation 
						JOINT rHand
						{
							OFFSET -8.349810 0.000000 0.000000
							CHANNELS 3 Zrotation Yrotation Xrotation 
							End Site
							{
								OFFSET -4.106464 0.000000 0.000000
							}
						}
					}
				}
			}
		}
	}
	JOINT lThigh
	{
		OFFSET 5.338403 -1.642589 1.368821
		CHANNELS 3 Xrotation Zrotation Yrotation 
		JOINT lShin
		{
			OFFSET -2.053232 -20.121670 0.000000
			CHANNELS 3 Xrotation Zrotation Yrotation 
			JOINT lFoot
			{
				OFFSET 0.000000 -19.300380 -1.231939
				CHANNELS 3 Xrotation Yrotation Zrotation 
				End Site
				{
					OFFSET 0.000000 -2.463878 4.653993
				}
			}
		}
	}
	JOINT rThigh
	{
		OFFSET -5.338403 -1.642589 1.368821
		CHANNELS 3 Xrotation Zrotation Yrotation 
		JOINT rShin
		{
			OFFSET 2.053232 -20.121670 0.000000
			CHANNELS 3 Xrotation Zrotation Yrotation 
			JOINT rFoot
			{
				OFFSET 0.000000 -19.300380 -1.231939
				CHANNELS 3 Xrotation Yrotation Zrotation 
				End Site
				{
					OFFSET 0.000000 -2.463878 4.653993
				}
			}
		}
	}
}
MOTION
Frames: 15
Frame Time: 0.066530
0.000000 9.397011 0.000000 89.996941 0.000000 0.000000 -0.071690 0.000000 0.000000 -24.174242 -0.100000 -0.141309 13.996111 11.116623 24.999161 2.540252 -7.459874 44.064846 -8.938446 0.517020 -0.129715 -58.473061 -2.930923 -45.195580 -119.185669 -5.638353 34.513924 9.006365 -1.621263 -0.238205 8.934938 -0.520491 -0.129459 -0.322856 31.583389 -27.068184 119.180672 5.635002 34.517277 -9.019759 1.635546 -0.190407 0.000000 9.016106 0.000000 0.008741 -0.022733 0.008743 51.165604 -0.013305 0.000554 0.000000 -9.019614 0.000000 0.008742 0.019236 -0.012238 51.165604 0.007886 -0.003775 
0.000000 9.397011 0.000000 89.996941 0.000000 0.000000 -0.071690 0.000000 0.000000 -24.174242 -0.100000 -0.141309 13.996111 11.116623 24.999161 2.170543 -7.331318 43.576206 -8.938446 0.517020 -0.129715 -58.077671 -3.042259 -44.996075 -119.185669 -5.638354 34.513924 9.006364 -1.621263 -0.238205 8.934938 -0.520491 -0.129459 -0.322855 31.583389 -27.068182 119.180672 5.635001 34.517273 -9.019759 1.635546 -0.190407 0.000000 9.016106 0.000000 0.008741 -0.022733 0.008743 51.165604 -0.013305 0.000554 0.000000 -9.019614 0.000000 0.008742 0.019236 -0.012238 51.165600 0.007886 -0.003775 
0.000000 9.397011 0.000000 89.996941 0.000000 0.000000 -0.071690 0.000000 0.000000 -24.174242 -0.100000 -0.141309 13.996111 11.116623 24.999161 1.798879 -7.205570 43.085590 -8.938446 0.517020 -0.129715 -57.681686 -3.155240 -44.796841 -119.185669 -5.638354 34.513924 9.006364 -1.621263 -0.238205 8.934938 -0.520491 -0.129459 -0.322855 31.583389 -27.068182 119.180672 5.635001 34.517273 -9.019759 1.635546 -0.190407 0.000000 9.016106 0.000000 0.008741 -0.022733 0.008743 51.165604 -0.013305 0.000554 0.000000 -9.019614 0.000000 0.008742 0.019236 -0.012238 51.165600 0.007886 -0.003775 
0.000000 9.397011 0.000000 89.996941 0.000000 0.000000 -0.071690 0.000000 0.000000 -24.174242 -0.100000 -0.141309 13.996111 11.116623 24.999161 1.425296 -7.082679 42.593048 -8.938446 0.517020 -0.129715 -57.285088 -3.269871 -44.597889 -119.185669 -5.638354 34.513924 9.006364 -1.621263 -0.238205 8.934938 -0.520491 -0.129459 -0.322855 31.583389 -27.068182 119.180672 5.635001 34.517273 -9.019759 1.635546 -0.190407 0.000000 9.016106 0.000000 0.008741 -0.022733 0.008743 51.165604 -0.013305 0.000554 0.000000 -9.019614 0.000000 0.008742 0.019236 -0.012238 51.165600 0.007886 -0.003775 
0.000000 9.397011 0.000000 89.996941 0.000000 0.000000 -0.071690 0.000000 0.000000 -24.174242 -0.100000 -0.141309 13.996111 11.116623 24.999161 1.049831 -6.962688 42.098621 -8.938446 0.517020 -0.129715 -56.887917 -3.386153 -44.399246 -119.185669 -5.638354 34.513924 9.006364 -1.621263 -0.238205 8.934938 -0.520491 -0.129459 -0.322855 31.583389 -27.068182 119.180672 5.635001 34.517273 -9.019759 1.635546 -0.190407 0.000000 9.016106 0.000000 0.008741 -0.022733 0.008743 51.165604 -0.013305 0.000554 0.000000 -9.019614 0.000000 0.008742 0.019236 -0.012238 51.165600 0.007886 -0.003775 
0.000000 9.397011 0.000000 89.996941 0.000000 0.000000 -0.071690 0.000000 0.000000 -24.174242 -0.100000 -0.141309 13.996111 11.116623 24.999161 0.672521 -6.845642 41.602329 -8.938446 0.517020 -0.129715 -56.490166 -3.504081 -44.200932 -119.185669 -5.638354 34.513924 9.006364 -1.621263 -0.238205 8.934938 -0.520491 -0.129459 -0.322855 31.583389 -27.068182 119.180672 5.635001 34.517273 -9.019759 1.635546 -0.190407 0.000000 9.016106 0.000000 0.008741 -0.022733 0.008743 51.165604 -0.013305 0.000554 0.000000 -9.019614 0.000000 0.008742 0.019236 -0.012238 51.165600 0.007886 -0.003775 
0.000000 9.397011 0.000000 89.996941 0.000000 0.000000 -0.071690 0.000000 0.000000 -24.174242 -0.100000 -0.141309 13.996111 11.116623 24.999161 0.293407 -6.731584 41.104237 -8.938446 0.517020 -0.129715 -56.091858 -3.623658 -44.002960 -119.185669 -5.638354 34.513924 9.006364 -1.621263 -0.238205 8.934938 -0.520491 -0.129459 -0.322855 31.583389 -27.068182 119.180672 5.635001 34.517273 -9.019759 1.635546 -0.190407 0.000000 9.016106 0.000000 0.008741 -0.022733 0.008743 51.165604 -0.013305 0.000554 0.000000 -9.019614 0.000000 0.008742 0.019236 -0.012238 51.165600 0.007886 -0.003775 
0.000000 9.397011 0.000000 89.996941 0.000000 0.000000 -0.071690 0.000000 0.000000 -24.174242 -0.100000 -0.141309 13.996111 11.116623 24.999161 -0.087473 -6.620556 40.604370 -8.938446 0.517020 -0.129715 -55.693005 -3.744885 -43.805351 -119.185669 -5.638354 34.513924 9.006364 -1.621263 -0.238205 8.934938 -0.520491 -0.129459 -0.322855 31.583389 -27.068182 119.180672 5.635001 34.517273 -9.019759 1.635546 -0.190407 0.000000 9.016106 0.000000 0.008741 -0.022733 0.008743 51.165604 -0.013305 0.000554 0.000000 -9.019614 0.000000 0.008742 0.019236 -0.012238 51.165600 0.007886 -0.003775 
0.000000 9.397011 0.000000 89.996941 0.000000 0.000000 -0.071690 0.000000 0.000000 -24.174242 -0.100000 -0.141309 13.996111 11.116623 24.999161 -0.470076 -6.512599 40.102768 -8.938446 0.517020 -0.129715 -55.293621 -3.867758 -43.608124 -119.185669 -5.638354 34.513924 9.006364 -1.621263 -0.238205 8.934938 -0.520491 -0.129459 -0.322855 31.583389 -27.068182 119.180672 5.635001 34.517273 -9.019759 1.635546 -0.190407 0.000000 9.016106 0.000000 0.008741 -0.022733 0.008743 51.165604 -0.013305 0.000554 0.000000 -9.019614 0.000000 0.008742 0.019236 -0.012238 51.165600 0.007886 -0.003775 
0.000000 9.397011 0.000000 89.996941 0.000000 0.000000 -0.071690 0.000000 0.000000 -24.174242 -0.100000 -0.141309 13.996111 11.116623 24.999161 -0.854358 -6.407753 39.599468 -8.938446 0.517020 -0.129715 -54.893711 -3.992273 -43.411289 -119.185669 -5.638354 34.513924 9.006364 -1.621263 -0.238205 8.934938 -0.520491 -0.129459 -0.322855 31.583389 -27.068182 119.180672 5.635001 34.517273 -9.019759 1.635546 -0.190407 0.000000 9.016106 0.000000 0.008741 -0.022733 0.008743 51.165604 -0.013305 0.000554 0.000000 -9.019614 0.000000 0.008742 0.019236 -0.012238 51.165600 0.007886 -0.003775 
0.000000 9.397011 0.000000 89.996941 0.000000 0.000000 -0.071690 0.000000 0.000000 -24.174242 -0.100000 -0.141309 13.996111 11.116623 24.999161 -1.240279 -6.306062 39.094536 -8.938446 0.517020 -0.129715 -54.493298 -4.118434 -43.214874 -119.185669 -5.638354 34.513924 9.006364 -1.621263 -0.238205 8.934938 -0.520491 -0.129459 -0.322855 31.583389 -27.068182 119.180672 5.635001 34.517273 -9.019759 1.635546 -0.190407 0.000000 9.016106 0.000000 0.008741 -0.022733 0.008743 51.165604 -0.013305 0.000554 0.000000 -9.019614 0.000000 0.008742 0.019236 -0.012238 51.165600 0.007886 -0.003775 
0.000000 9.397011 0.000000 89.996941 0.000000 0.000000 -0.071690 0.000000 0.000000 -24.174242 -0.100000 -0.141309 13.996111 11.116623 24.999161 -1.627792 -6.207564 38.588013 -8.938446 0.517020 -0.129715 -54.092415 -4.246241 -43.018909 -119.185669 -5.638355 34.513920 9.006364 -1.621263 -0.238205 8.934938 -0.520491 -0.129459 -0.322855 31.583389 -27.068182 119.180672 5.635001 34.517273 -9.019759 1.635546 -0.190407 0.000000 9.016106 0.000000 0.008741 -0.022733 0.008743 51.165604 -0.013305 0.000554 0.000000 -9.019614 0.000000 0.008742 0.019236 -0.012238 51.165600 0.007886 -0.003775 
0.000000 9.397011 0.000000 89.996941 0.000000 0.000000 -0.071690 0.000000 0.000000 -24.174242 -0.100000 -0.141309 13.996111 11.116623 24.999161 -2.016849 -6.112291 38.079914 -8.938446 0.517020 -0.129715 -53.691040 -4.375683 -42.823387 -119.185669 -5.638354 34.513924 9.006364 -1.621263 -0.238205 8.934938 -0.520491 -0.129459 -0.322855 31.583389 -27.068182 119.180672 5.635001 34.517273 -9.019759 1.635546 -0.190407 0.000000 9.016106 0.000000 0.008741 -0.022733 0.008743 51.165604 -0.013305 0.000554 0.000000 -9.019614 0.000000 0.008742 0.019236 -0.012238 51.165600 0.007886 -0.003775 
0.000000 9.397011 0.000000 89.996941 0.000000 0.000000 -0.071690 0.000000 0.000000 -24.174242 -0.100000 -0.141309 13.996111 11.116623 24.999161 -2.407407 -6.020289 37.570324 -8.938446 0.517020 -0.129715 -53.289196 -4.506760 -42.628334 -119.185669 -5.638355 34.513920 9.006364 -1.621263 -0.238205 8.934938 -0.520491 -0.129459 -0.322855 31.583389 -27.068182 119.180672 5.635001 34.517273 -9.019759 1.635546 -0.190407 0.000000 9.016106 0.000000 0.008741 -0.022733 0.008743 51.165604 -0.013305 0.000554 0.000000 -9.019614 0.000000 0.008742 0.019236 -0.012238 51.165600 0.007886 -0.003775 
0.000000 9.397011 0.000000 89.996941 0.000000 0.000000 -0.071690 0.000000 0.000000 -24.174242 -0.100000 -0.141309 13.996111 11.116623 24.999161 -2.799415 -5.931588 37.059277 -8.938446 0.517020 -0.129715 -52.886913 -4.639476 -42.433788 -119.185669 -5.638354 34.513924 9.006364 -1.621263 -0.238205 8.934938 -0.520491 -0.129459 -0.322855 31.583389 -27.068182 119.180672 5.635002 34.517273 -9.019759 1.635546 -0.190407 0.000000 9.016106 0.000000 0.008741 -0.022733 0.008743 51.165604 -0.013305 0.000554 0.000000 -9.019614 0.000000 0.008742 0.019236 -0.012238 51.165600 0.007886 -0.003775 
